<svg version="1" xmlns="http://www.w3.org/2000/svg" width="512" height="512" viewBox="0 0 384.000000 384.000000"><path d="M172.7 25.1c-27 3.1-55.6 14-77.7 29.7-12.2 8.6-31.6 28-40.2 40.2-40.9 57.7-40.9 136.3 0 194 8.6 12.2 28 31.6 40.2 40.2 58.3 41.3 136.3 40.9 195.3-.9 11-7.8 30.7-27.6 38.9-39.3 30.7-43.3 38.9-99.1 22.2-150-4.5-13.7-13.8-32.1-22.2-44-8.2-11.7-27.9-31.5-38.9-39.3-34.5-24.4-76.6-35.4-117.6-30.6zm35 24c28.1 3.1 54.1 14.1 75.7 32 25.9 21.4 42.5 49.2 49.7 82.9 1.8 8.6 2.2 13.7 2.2 28 0 18.9-1.7 30.2-6.9 46-15.1 45.1-54 81.4-100 93.1-66.7 16.9-135.2-14.3-165.3-75.3-6-12.2-9.2-21.6-12.2-35.8-3.2-15-3.2-41 0-56 3-14.2 6.2-23.6 12.2-35.8 26.6-54 84.8-85.8 144.6-79.1z"/><path d="M97.7 157c-2 .5-5.6 1.9-7.9 3.1-4.9 2.5-14.4 11.2-16.4 15.1-4.5 8.6 2.8 17.7 13.3 16.5 3.6-.4 5.4-1.4 9.2-5 7.1-7.1 12.8-8.4 19-4.6 1.9 1.1 4.3 3.2 5.4 4.5 7.6 9.7 23.7 5.4 23.7-6.3 0-6.2-8.9-15.9-18.8-20.6-5.2-2.4-7.9-3-15-3.3-4.8-.2-10.4.1-12.5.6zM265.7 157c-2 .5-5.6 1.9-7.9 3.1-4.9 2.5-14.4 11.2-16.4 15.1-4.5 8.6 2.8 17.7 13.3 16.5 3.6-.4 5.4-1.4 9.2-5 7.1-7.1 12.8-8.4 19-4.6 1.9 1.1 4.3 3.2 5.4 4.5 7.6 9.7 23.7 5.4 23.7-6.3 0-6.2-8.9-15.9-18.8-20.6-5.2-2.4-7.9-3-15-3.3-4.8-.2-10.4.1-12.5.6zM92.4 217.9c-3.8 2.3-5.8 7-5.1 11.7.3 2 2.4 6.6 4.6 10.3 13.5 22.5 39.2 38.7 73.1 45.8 13.4 2.8 42.2 2.5 55.9-.5 23.4-5.3 42.2-14.6 56.5-28.1 10.7-10.2 19.6-23.5 19.6-29.3 0-8.7-9.3-14.4-17.4-10.6-1.4.6-4.6 4.4-7.1 8.3-11 17.7-31.1 30.7-55 35.6-26.9 5.5-53.4 2.5-76.2-8.7-13.8-6.8-22.7-14.6-29.2-25.7-2.5-4.1-5.7-8.2-7.2-9.1-3.6-2.1-8.7-2-12.5.3z"/></svg>